<svg id="Layer_2" data-name="Layer 2" xmlns="http://www.w3.org/2000/svg" xmlns:xlink="http://www.w3.org/1999/xlink" viewBox="0 0 895 600"><defs><style>.cls-1{fill:none;}.cls-2{clip-path:url(#clip-path);}.cls-3{fill:#ee1c25;}.cls-4{fill:#0b4ea2;}.cls-5{fill:#fff;}.cls-6{fill:#939598;}</style><clipPath id="clip-path"><path class="cls-1" d="M34.72,0H859.28A30.82,30.82,0,0,1,890,30.93V569.07A30.82,30.82,0,0,1,859.28,600H34.72A30.82,30.82,0,0,1,4,569.07V30.93A30.82,30.82,0,0,1,34.72,0Z"/></clipPath></defs><title>Eslováquia</title><g class="cls-2"><rect class="cls-3" x="2" width="893" height="600"/><rect class="cls-4" x="2" width="893" height="400"/><rect class="cls-5" x="2" width="891.9" height="200"/><path class="cls-5" d="M318.25,463.5c-53.78-25.9-130.71-77.32-130.71-179s4.87-148,4.87-148h251.7s4.86,46.26,4.86,148S372,437.6,318.25,463.5Z"/><path class="cls-3" d="M318.25,450c-49.34-23.77-119.91-70.94-119.91-164.25S202.8,150,202.8,150H433.71s4.47,42.44,4.47,135.75S367.6,426.23,318.26,450Z"/><path class="cls-5" d="M328.81,261.28c13.36.22,39.42.74,62.63-7,0,0-.61,8.3-.61,18s.61,18,.61,18c-21.29-7.13-47.58-7.27-62.63-7.08v51.54H307.7V283.14c-15.05-.19-41.34-.05-62.63,7.08,0,0,.61-8.31.61-18s-.61-18-.61-18c23.21,7.76,49.27,7.24,62.63,7V228.92c-12.17-.11-29.72.47-49.56,7.11,0,0,.61-8.31.61-18s-.61-18-.61-18c19.81,6.62,37.34,7.21,49.51,7.11-.63-20.5-6.6-46.33-6.6-46.33s12.29,1,17.21,1,17.2-1,17.2-1-6,25.83-6.6,46.33c12.18.1,29.7-.49,49.51-7.12,0,0-.61,8.31-.61,18s.61,18,.61,18c-19.84-6.64-37.39-7.22-49.56-7.12v32.37Z"/><path class="cls-4" d="M318.25,329.09c-24.85,0-38.16,34.47-38.16,34.47a30.45,30.45,0,0,0-27.65-16.34c-13.72,0-23.83,12.2-30.25,23.5,24.95,39.7,64.77,64.21,96.06,79.28,31.3-15.08,71.14-39.57,96.09-79.28-6.42-11.3-16.53-23.5-30.25-23.5a30.52,30.52,0,0,0-27.68,16.34s-13.31-34.47-38.16-34.47Z"/></g><g id="Layer_1" data-name="Layer 1"><path class="cls-6" d="M863.1,6A25,25,0,0,1,888,30.9V569a24.9,24.9,0,0,1-24.9,24.9H32.9A24.82,24.82,0,0,1,8,569.1V30.9A25,25,0,0,1,32.9,6H863.1m0-6H32.9A30.86,30.86,0,0,0,2,30.9H2V569a30.88,30.88,0,0,0,30.9,31H863a30.86,30.86,0,0,0,30.9-30.9V30.9A30.71,30.71,0,0,0,863.1,0Z"/></g></svg>